<?xml version="1.0" encoding="UTF-8"?>
<svg id="Layer_1" data-name="Layer 1" xmlns="http://www.w3.org/2000/svg" viewBox="0 0 30.09 30.09">
  <defs>
    <style>
      .cls-1 {
        fill: #fff;
      }
    </style>
  </defs>
  <rect x="0" y="0" width="30.09" height="30.09" rx="15.04" ry="15.04"/>
  <path class="cls-1" d="m10.39,19.99l4.65,4.65,4.65-4.65h-1.72l-2.93,2.93-2.93-2.93h-1.72Zm0-9.9h1.72l2.93-2.93,2.93,2.93h1.72l-4.65-4.65-4.65,4.65Zm0,8.68h1.72l2.87-2.87.06-.06,2.93,2.93h1.72l-3.73-3.73,3.73-3.73h-1.72l-2.87,2.87-.06.06-2.93-2.93h-1.72l3.73,3.73-3.73,3.73Z"/>
  <path class="cls-1" d="m10.39,19.99l4.65,4.65,4.65-4.65h-1.72l-2.93,2.93-2.93-2.93h-1.72Zm0-9.9h1.72l2.93-2.93,2.93,2.93h1.72l-4.65-4.65-4.65,4.65Zm0,8.68h1.72l2.87-2.87.06-.06,2.93,2.93h1.72l-3.73-3.73,3.73-3.73h-1.72l-2.87,2.87-.06.06-2.93-2.93h-1.72l3.73,3.73-3.73,3.73Z"/>
  <rect class="cls-1" x="13.95" y="9.53" width="2.18" height="2.18" transform="translate(-3.1 13.75) rotate(-45)"/>
  <rect class="cls-1" x="13.95" y="18.26" width="2.18" height="2.18" transform="translate(-9.27 16.3) rotate(-45)"/>
</svg>